<mxfile host="app.diagrams.net" modified="2023-04-12T14:12:40.942Z" agent="Mozilla/5.0 (Windows NT 10.0; Win64; x64; rv:109.0) Gecko/20100101 Firefox/111.0" etag="qLtnAw0lH-OyL1XBz08e" version="21.1.6" type="device">
  <diagram name="Page-1" id="JcO-cYtrMoQRE4OYDUYB">
    <mxGraphModel dx="1242" dy="696" grid="1" gridSize="10" guides="1" tooltips="1" connect="1" arrows="1" fold="1" page="1" pageScale="1" pageWidth="850" pageHeight="1100" math="0" shadow="0">
      <root>
        <mxCell id="0" />
        <mxCell id="1" parent="0" />
        <mxCell id="hOEp766vmTn9KuHqFeZD-1" style="edgeStyle=orthogonalEdgeStyle;rounded=0;orthogonalLoop=1;jettySize=auto;html=1;exitX=1;exitY=0.5;exitDx=0;exitDy=0;" edge="1" parent="1" source="hOEp766vmTn9KuHqFeZD-3" target="hOEp766vmTn9KuHqFeZD-6">
          <mxGeometry relative="1" as="geometry" />
        </mxCell>
        <mxCell id="hOEp766vmTn9KuHqFeZD-3" value="Idle" style="ellipse;whiteSpace=wrap;html=1;aspect=fixed;" vertex="1" parent="1">
          <mxGeometry x="160" y="120" width="80" height="80" as="geometry" />
        </mxCell>
        <mxCell id="hOEp766vmTn9KuHqFeZD-6" value="Converting" style="ellipse;whiteSpace=wrap;html=1;aspect=fixed;" vertex="1" parent="1">
          <mxGeometry x="360" y="120" width="80" height="80" as="geometry" />
        </mxCell>
        <mxCell id="hOEp766vmTn9KuHqFeZD-39" style="edgeStyle=orthogonalEdgeStyle;rounded=1;orthogonalLoop=1;jettySize=auto;html=1;exitX=0;exitY=0.5;exitDx=0;exitDy=0;entryX=0;entryY=0.5;entryDx=0;entryDy=0;" edge="1" parent="1" target="hOEp766vmTn9KuHqFeZD-8">
          <mxGeometry relative="1" as="geometry">
            <mxPoint x="200" y="200" as="sourcePoint" />
            <Array as="points">
              <mxPoint x="200" y="280" />
            </Array>
          </mxGeometry>
        </mxCell>
        <mxCell id="hOEp766vmTn9KuHqFeZD-8" value="&lt;div&gt;Sending&lt;/div&gt;" style="ellipse;whiteSpace=wrap;html=1;aspect=fixed;" vertex="1" parent="1">
          <mxGeometry x="260" y="240" width="80" height="80" as="geometry" />
        </mxCell>
        <mxCell id="hOEp766vmTn9KuHqFeZD-40" value="" style="edgeStyle=orthogonalEdgeStyle;rounded=0;orthogonalLoop=1;jettySize=auto;html=1;" edge="1" parent="1" source="hOEp766vmTn9KuHqFeZD-13" target="hOEp766vmTn9KuHqFeZD-3">
          <mxGeometry relative="1" as="geometry" />
        </mxCell>
        <mxCell id="hOEp766vmTn9KuHqFeZD-13" value="Reset" style="rounded=0;whiteSpace=wrap;html=1;" vertex="1" parent="1">
          <mxGeometry x="70" y="150" width="60" height="20" as="geometry" />
        </mxCell>
        <mxCell id="hOEp766vmTn9KuHqFeZD-17" value="&lt;div&gt;ResReady = 1&lt;/div&gt;&lt;div&gt;ResInvalid = 0&lt;br&gt;&lt;/div&gt;&lt;div&gt;StartConv &amp;lt;= 1&lt;/div&gt;" style="text;html=1;strokeColor=none;fillColor=none;align=center;verticalAlign=middle;whiteSpace=wrap;rounded=0;" vertex="1" parent="1">
          <mxGeometry x="255" y="120" width="90" height="40" as="geometry" />
        </mxCell>
        <mxCell id="hOEp766vmTn9KuHqFeZD-21" value="&lt;div&gt;&lt;div&gt;ConvDone = 1 &lt;br&gt;&lt;/div&gt;&lt;/div&gt;&lt;div&gt;StartSend &amp;lt;= 1&lt;/div&gt;" style="text;html=1;strokeColor=none;fillColor=none;align=center;verticalAlign=middle;whiteSpace=wrap;rounded=0;" vertex="1" parent="1">
          <mxGeometry x="360" y="200" width="90" height="30" as="geometry" />
        </mxCell>
        <mxCell id="hOEp766vmTn9KuHqFeZD-30" value="&lt;div&gt;SendDone = 1&lt;/div&gt;&lt;div&gt;Done &amp;lt;= 1&lt;br&gt;&lt;/div&gt;" style="text;html=1;strokeColor=none;fillColor=none;align=center;verticalAlign=middle;whiteSpace=wrap;rounded=0;" vertex="1" parent="1">
          <mxGeometry x="255" y="200" width="80" height="30" as="geometry" />
        </mxCell>
        <mxCell id="hOEp766vmTn9KuHqFeZD-32" value="" style="endArrow=classic;html=1;rounded=0;entryX=1;entryY=0;entryDx=0;entryDy=0;exitX=0;exitY=1;exitDx=0;exitDy=0;" edge="1" parent="1" source="hOEp766vmTn9KuHqFeZD-6" target="hOEp766vmTn9KuHqFeZD-8">
          <mxGeometry width="50" height="50" relative="1" as="geometry">
            <mxPoint x="350" y="260" as="sourcePoint" />
            <mxPoint x="400" y="210" as="targetPoint" />
          </mxGeometry>
        </mxCell>
        <mxCell id="hOEp766vmTn9KuHqFeZD-36" value="&lt;div&gt;ResReady = 1&lt;/div&gt;&lt;div&gt;ResInvalid = 1&lt;br&gt;&lt;/div&gt;&lt;div&gt;StartSend &amp;lt;= 1&lt;/div&gt;" style="text;html=1;strokeColor=none;fillColor=none;align=center;verticalAlign=middle;whiteSpace=wrap;rounded=0;" vertex="1" parent="1">
          <mxGeometry x="110" y="200" width="90" height="40" as="geometry" />
        </mxCell>
        <mxCell id="hOEp766vmTn9KuHqFeZD-38" value="" style="endArrow=classic;html=1;rounded=0;entryX=1;entryY=1;entryDx=0;entryDy=0;exitX=0;exitY=0;exitDx=0;exitDy=0;" edge="1" parent="1" source="hOEp766vmTn9KuHqFeZD-8" target="hOEp766vmTn9KuHqFeZD-3">
          <mxGeometry width="50" height="50" relative="1" as="geometry">
            <mxPoint x="338" y="262" as="sourcePoint" />
            <mxPoint x="382" y="198" as="targetPoint" />
          </mxGeometry>
        </mxCell>
      </root>
    </mxGraphModel>
  </diagram>
</mxfile>
